<svg width="28" height="20" viewBox="0 0 28 20" fill="none" xmlns="http://www.w3.org/2000/svg">
    <g clip-path="url(#clip0_3021_5479)">
        <path d="M1.46881 1.02288H2.32301V1.45346C2.51981 1.19849 2.77272 0.966309 3.20485 0.966309C3.85136 0.966309 4.22738 1.39689 4.22738 2.09343V4.05809H3.37401V2.36529C3.37401 1.9575 3.18224 1.74727 2.85647 1.74727C2.5307 1.74727 2.32301 1.9575 2.32301 2.36529V4.05809H1.46881V1.02203V1.02288Z" fill="currentColor"/>
        <path d="M5.06064 0.0942383H6.85865C7.35861 0.0942383 7.74635 0.236079 8.00428 0.496119C8.22369 0.717322 8.34177 1.02886 8.34177 1.40288V1.41386C8.34177 2.05383 7.99926 2.45571 7.4993 2.64314L8.45985 4.05901H7.44821L6.6049 2.79089H5.92573V4.05901H5.06064V0.0942383ZM6.8017 2.02006C7.22294 2.02006 7.46412 1.79379 7.46412 1.45945V1.44847C7.46412 1.07446 7.20619 0.881958 6.78411 0.881958H5.92489V2.0209H6.80086L6.8017 2.02006Z" fill="currentColor"/>
        <path d="M9.12479 0.0942383H12.1187V0.887024H9.98987V1.73131H11.8658V2.5241H9.98987V4.05901H9.12479V0.0942383Z" fill="currentColor"/>
        <path d="M11.4018 11.0982L8.19771 19.1105H3.57414L6.61493 11.8556C6.25398 12.0135 6.02536 12.0422 5.73309 12.0616C3.4301 12.2195 0.657295 10.433 0.40271 6.67165C0.352462 5.9253 0.405222 5.2389 0.548426 4.61328H4.6578C4.6578 5.15785 4.6712 5.74378 4.6712 6.52475C4.6712 7.99043 5.67028 8.40075 6.49098 8.40075C7.31169 8.40075 8.35012 7.99043 8.35012 6.52475V4.61328H12.5164C12.601 4.98814 12.6714 5.3858 12.6906 5.80964C12.7735 7.46613 12.3121 8.83809 11.4018 11.0982Z" fill="currentColor"/>
        <path d="M24.5096 9.12581C24.5096 9.12581 23.5055 8.53818 22.8992 8.35244L26.9826 3.48682H21.5174L17.7723 7.92354C17.7723 7.92354 17.7832 11.1259 17.8008 11.1301H20.3206C21.6103 11.1301 22.3356 12.3653 22.3356 13.5144C22.3356 14.8771 21.54 15.5458 20.4002 15.5458C19.2604 15.5458 18.4649 14.8779 18.4649 13.5414H14.1168C14.1168 17.8177 17.2715 19.5012 20.3994 19.5012C23.7132 19.5012 26.6819 17.6303 26.6819 13.6478C26.6819 11.3758 25.5422 9.84683 24.5079 9.12496L24.5096 9.12581Z" fill="currentColor"/>
        <path d="M14.3111 2.48867L14.6645 2.06146C14.909 2.26578 15.1661 2.39495 15.4768 2.39495C15.7214 2.39495 15.8696 2.29701 15.8696 2.1366V2.129C15.8696 1.97618 15.7758 1.89767 15.3211 1.77947C14.7725 1.63847 14.4191 1.4865 14.4191 0.941089V0.933491C14.4191 0.435361 14.8161 0.106934 15.3713 0.106934C15.7674 0.106934 16.1058 0.232732 16.3821 0.455624L16.0714 0.90985C15.8302 0.741837 15.5932 0.639679 15.3638 0.639679C15.1343 0.639679 15.0137 0.745214 15.0137 0.878612V0.88621C15.0137 1.06689 15.1301 1.12514 15.5999 1.24757C16.1518 1.39194 16.4634 1.59288 16.4634 2.0699V2.07834C16.4634 2.62291 16.0513 2.9277 15.4643 2.9277C15.0523 2.9277 14.6369 2.78332 14.3103 2.48867H14.3111Z" fill="currentColor"/>
        <path d="M16.8494 0.144775H18.9012V0.682586H17.444V1.23897H18.7262V1.77594H17.444V2.35174H18.9204V2.88871H16.8486V0.144775H16.8494Z" fill="currentColor"/>
        <path d="M19.3182 0.144775H20.5619C20.9077 0.144775 21.1757 0.243557 21.3549 0.42339C21.5065 0.576206 21.5877 0.791499 21.5877 1.0507V1.05829C21.5877 1.5007 21.3507 1.77931 21.0049 1.90933L21.6698 2.88871H20.9705L20.3868 2.01149H19.917V2.88871H19.3182V0.144775ZM20.5225 1.4779C20.8139 1.4779 20.9814 1.32087 20.9814 1.08953V1.08109C20.9814 0.822738 20.803 0.68934 20.5108 0.68934H19.9162V1.47706H20.5225V1.4779Z" fill="currentColor"/>
        <path d="M22.019 0.144775H22.6178V2.88871H22.019V0.144775Z" fill="currentColor"/>
        <path d="M23.1621 0.144775H25.2147V0.682586H23.7576V1.23897H25.0397V1.77594H23.7576V2.35174H25.2348V2.88871H23.163V0.144775H23.1621Z" fill="currentColor"/>
        <path d="M25.4442 2.49708L25.8009 2.06649C26.048 2.2725 26.3068 2.40252 26.62 2.40252C26.867 2.40252 27.0161 2.30289 27.0161 2.14163V2.13404C27.0161 1.97953 26.9223 1.90017 26.4634 1.78112C25.9106 1.63928 25.5539 1.48562 25.5539 0.935992V0.928394C25.5539 0.426043 25.9534 0.0942383 26.5144 0.0942383C26.9139 0.0942383 27.2548 0.220881 27.5336 0.445462L27.2204 0.903909C26.9767 0.734208 26.738 0.632049 26.5069 0.632049C26.2758 0.632049 26.1535 0.738429 26.1535 0.872671V0.880269C26.1535 1.06264 26.2707 1.12174 26.7456 1.24416C27.3016 1.39022 27.6157 1.592 27.6157 2.07325V2.08169C27.6157 2.63132 27.1995 2.93864 26.6082 2.93864C26.1929 2.93864 25.7733 2.79258 25.4442 2.49623V2.49708Z" fill="currentColor"/>
    </g>
    <defs>
        <clipPath id="clip0_3021_5479">
            <rect width="28" height="20" fill="none"/>
        </clipPath>
    </defs>
</svg>
