<svg width="27" height="20" viewBox="0 0 27 20" fill="none" xmlns="http://www.w3.org/2000/svg">
    <g clip-path="url(#clip0_3021_5466)">
        <path d="M13.4302 18.7812L13.7653 18.3817C13.9979 18.5726 14.2409 18.6929 14.5357 18.6929C14.7674 18.6929 14.908 18.6015 14.908 18.4515V18.4443C14.908 18.3015 14.8191 18.2285 14.3879 18.1179C13.8678 17.9863 13.5327 17.8444 13.5327 17.335V17.3278C13.5327 16.8626 13.909 16.5554 14.4364 16.5554C14.8119 16.5554 15.1325 16.6725 15.3949 16.8811L15.1002 17.3062C14.8716 17.149 14.6463 17.0535 14.4291 17.0535C14.2119 17.0535 14.0972 17.1522 14.0972 17.2765V17.2837C14.0972 17.4521 14.2078 17.5067 14.6536 17.6214C15.1769 17.7561 15.4716 17.9438 15.4716 18.3898V18.397C15.4716 18.9055 15.0808 19.191 14.5244 19.191C14.1335 19.191 13.7394 19.0563 13.4294 18.7812H13.4302Z" fill="currentColor"/>
        <path d="M15.8366 16.5906H17.7828V17.0927H16.4011V17.6124H17.6181V18.1137H16.4011V18.6519H17.8014V19.154H15.8366V16.5906Z" fill="currentColor"/>
        <path d="M18.1785 16.5906H19.3583C19.6862 16.5906 19.9406 16.6828 20.1109 16.8512C20.2547 16.994 20.3322 17.1953 20.3322 17.4376V17.4448C20.3322 17.8587 20.1077 18.1177 19.779 18.2396L20.4097 19.1548H19.7459L19.1928 18.3351H18.747V19.1548H18.1793V16.5914L18.1785 16.5906ZM19.3212 17.8362C19.5974 17.8362 19.7564 17.6902 19.7564 17.4737V17.4656C19.7564 17.2242 19.5869 17.0999 19.3107 17.0999H18.747V17.8362H19.322H19.3212Z" fill="currentColor"/>
        <path d="M20.7401 16.5906H21.3078V19.154H20.7401V16.5906Z" fill="currentColor"/>
        <path d="M21.8246 16.5906H23.7707V17.0927H22.389V17.6124H23.6052V18.1137H22.389V18.6519H23.7901V19.154H21.8254V16.5906H21.8246Z" fill="currentColor"/>
        <path d="M23.988 18.7883L24.3263 18.3856C24.5605 18.5781 24.806 18.7001 25.1032 18.7001C25.3374 18.7001 25.4787 18.607 25.4787 18.4562V18.449C25.4787 18.3046 25.3899 18.2308 24.9538 18.1194C24.4297 17.9862 24.0921 17.8426 24.0921 17.3293V17.3221C24.0921 16.8529 24.4709 16.5425 25.0031 16.5425C25.3818 16.5425 25.7048 16.6604 25.9697 16.8713L25.6725 17.2996C25.4416 17.1416 25.2146 17.0454 24.9958 17.0454C24.7769 17.0454 24.6607 17.1448 24.6607 17.27V17.2772C24.6607 17.4472 24.7721 17.5026 25.2219 17.6173C25.7492 17.7536 26.0472 17.9421 26.0472 18.3921V18.3993C26.0472 18.9126 25.6531 19.2005 25.0919 19.2005C24.6978 19.2005 24.3005 19.0642 23.988 18.7867V18.7883Z" fill="currentColor"/>
        <path d="M1.84918 1.97195H2.67288V2.38101C2.86265 2.13878 3.10653 1.91821 3.52322 1.91821C4.14664 1.91821 4.50923 2.32727 4.50923 2.98898V4.8554H3.68634V3.24725C3.68634 2.85985 3.50141 2.66013 3.18728 2.66013C2.87315 2.66013 2.67288 2.85985 2.67288 3.24725V4.8554H1.84918V1.97115V1.97195Z" fill="currentColor"/>
        <path d="M5.31273 1.0896H7.04652C7.52863 1.0896 7.90252 1.22435 8.15124 1.47139C8.36282 1.68153 8.47668 1.97749 8.47668 2.33281V2.34324C8.47668 2.95121 8.1464 3.333 7.66429 3.51106L8.59054 4.85613H7.61503L6.80184 3.65142H6.14692V4.85613H5.31273V1.0896ZM6.99242 2.91913C7.39861 2.91913 7.63118 2.70417 7.63118 2.38655V2.37612C7.63118 2.02081 7.38246 1.83793 6.97546 1.83793H6.14692V2.91993H6.99161L6.99242 2.91913Z" fill="currentColor"/>
        <path d="M9.23175 1.0896H12.1187V1.84275H10.0659V2.64482H11.8748V3.39796H10.0659V4.85613H9.23175V1.0896Z" fill="currentColor"/>
        <path d="M20.2716 0.939697C17.081 0.939697 14.3548 2.90558 14.3548 6.48282H18.5734C18.5734 5.07759 19.4988 4.71906 20.2716 4.71906C21.3505 4.71906 21.9174 5.40885 21.9174 6.40582C21.9174 7.17341 21.659 7.63139 20.992 8.34684L13.8598 16.0668H19.0103L23.8717 10.903C25.339 9.37108 26.1368 8.34684 26.1368 6.43149C26.1368 3.00824 23.6666 0.940499 20.2725 0.940499L20.2716 0.939697ZM11.4274 11.5431L8.33778 19.1548H3.87934L6.81153 12.2626C6.46347 12.4125 6.24302 12.4398 5.96118 12.4583C3.74044 12.6082 1.06667 10.9111 0.821175 7.33783C0.772722 6.6288 0.823597 5.97671 0.961687 5.38238H4.9243C4.9243 5.89971 4.93722 6.45635 4.93722 7.19827C4.93722 8.59067 5.90062 8.98047 6.69201 8.98047C7.4834 8.98047 8.48475 8.59067 8.48475 7.19827V5.38238H12.5023C12.5838 5.7385 12.6517 6.11627 12.6702 6.51891C12.7502 8.09258 12.3052 9.39595 11.4274 11.5431Z" fill="currentColor"/>
    </g>
    <defs>
        <clipPath id="clip0_3021_5466">
            <rect width="27" height="20" fill="none"/>
        </clipPath>
    </defs>
</svg>
